<svg xmlns="http://www.w3.org/2000/svg" xmlns:xlink="http://www.w3.org/1999/xlink" viewBox="0 0 640 480">
  <defs>
    <path class="monogram-s" id="b" d="M361.06 62.31c-1.5.55-2.44.89-2.82 1.03a181.422 181.422 0 00-71.07 47.58c-9.25 10.07 5.96-6.48 0 0a291.903 291.903 0 00-65.33 116.04c-.24.85-.86 2.97-1.84 6.35h191.37c-.86 3.06-1.39 4.97-1.61 5.74a273.171 273.171 0 01-59.43 108.52c-6.06 6.79 4.58-5.12-4.85 5.44a256.635 256.635 0 01-58.17 48.33c-1.49.9-5.22 3.17-11.19 6.79">
    </path>
    <path class="monogram-l" id="c" d="M404.29 189.42c-.46-3.93-.75-6.39-.86-7.37a333.013 333.013 0 00-20.12-81.16">
    </path>
    <path class="monogram-d" id="d" d="M289.93 269.12a24.028 24.028 0 0115.89 23.57c-.18 4.67-.07 1.75-.26 6.59a38.85 38.85 0 01-13.33 27.77c-2.94 2.55 2.53-2.2 0 0a107.461 107.461 0 01-32.89 19.52c-1.69.63-5.94 2.2-12.72 4.73.04-5.03.07-8.17.08-9.43.2-22.72-2.24-45.39-7.28-67.55 6.19-2.44 10.06-3.97 11.61-4.59a55.155 55.155 0 0138.9-.61c3.32 1.19-3.92-1.41 0 0z">
    </path>
  </defs>
  <use fill-opacity="0" stroke="#000" stroke-width="8" xlink:href="#b"/>
  <use fill-opacity="0" stroke="#000" stroke-width="8" xlink:href="#c"/>
  <use fill-opacity="0" stroke="#000" stroke-width="8" xlink:href="#d"/>
</svg>
